<svg width="73" height="73" viewBox="0 0 73 73" fill="none" xmlns="http://www.w3.org/2000/svg">
	<path d="M70.172 19.5616C66.5259 24.0987 59.8919 24.8114 55.3686 21.1653C50.8316 17.5194 50.1189 10.899 53.7648 6.36199C57.4108 1.83874 64.0312 1.11228 68.5683 4.75831C73.1051 8.3906 73.818 15.0247 70.172 19.5616Z" fill="#231F20"/>
	<path d="M55.958 36.0098C53.0384 37.353 49.5431 37.3256 46.555 35.626L38.2761 46.6189C39.3042 47.8251 39.8798 49.3329 39.9484 50.8818C40.0031 52.2524 39.6468 53.6643 38.8517 54.9116C36.7822 58.119 32.4782 59.0511 29.2708 56.9676C28.928 56.7483 28.6265 56.5015 28.3387 56.2275C28.2427 56.1451 28.1605 56.063 28.0782 55.967C27.8864 55.7614 27.7081 55.5558 27.5436 55.3365C27.4752 55.2406 27.3929 55.1446 27.3244 55.0487C27.1187 54.7471 26.9406 54.4455 26.7897 54.1166C26.7487 54.0344 26.7213 53.9521 26.6802 53.8561C26.5705 53.5957 26.4745 53.3215 26.3924 53.0475C26.3648 52.9515 26.3374 52.8418 26.3101 52.7459C26.2279 52.4031 26.173 52.0606 26.1456 51.7178C26.1456 51.6219 26.1456 51.5259 26.1456 51.43C26.1318 51.1148 26.1456 50.7995 26.1593 50.4843C26.1593 50.4157 26.1593 50.3472 26.173 50.2924C26.2141 49.9223 26.2963 49.5659 26.3924 49.2095C26.4198 49.1272 26.4472 49.0451 26.4745 48.9491C26.5979 48.579 26.735 48.2226 26.9268 47.8663L20.2517 42.8496L18.1819 45.6047L10.5472 39.8615L16.2904 32.2268L23.9251 37.97L21.8554 40.725L28.5991 45.7965C30.6962 44.042 33.7117 43.6582 36.2201 44.9467L44.4716 33.9949C41.1819 30.7738 40.3459 25.62 42.772 21.4532C43.2517 20.6308 43.8274 19.918 44.4716 19.2738C39.9895 16.2172 34.5615 14.4079 28.7224 14.3942C13.1652 14.3805 0.541222 26.9359 0.500101 42.4521C0.45898 57.9819 13.0144 70.5921 28.5443 70.6333C44.0741 70.6744 56.6843 58.119 56.7255 42.5891C56.7255 40.3138 56.4651 38.1069 55.958 35.9961V36.0098Z" fill="#EE0C5D"/>
</svg>